<svg id="Calque_1" data-name="Calque 1" xmlns="http://www.w3.org/2000/svg" viewBox="0 0 874.09 874.36"><defs><style>.cls-1{fill:#00bc00;}</style></defs><title>call</title><path class="cls-1" d="M976,979.42H945.24c-3.88-.66-7.74-1.52-11.64-2-16.93-1.94-34.08-2.63-50.76-5.8-107.69-20.46-196.35-73.26-264.7-159-52.11-65.39-82.63-140-91.45-223.34-1.13-10.7-2.43-21.38-3.65-32.06V526.46c.65-3.6,1.71-7.19,1.89-10.81a417.19,417.19,0,0,1,35.28-148.34C642,181.27,837.68,76.33,1038,112c92.06,16.38,171.56,58.25,236,126.11,99.21,104.44,138.23,229.18,117.94,371.46-12,84.29-47.8,158.64-104.78,222C1212.44,914.7,1119.43,963.23,1008,975.74,997.35,976.94,986.68,978.19,976,979.42Zm169.35-169.83c14.27.87,34.46-8.52,49.33-29.16,8.81-12.24,18-24.26,26.46-36.71,10.66-15.61,9.19-30.41-4.12-43.86q-28.83-29.16-58-58c-13.88-13.73-28.14-15-44.73-5-12.17,7.32-24.58,14.25-37.1,20.94-7.67,4.1-15.83,4.49-23.73.26-14.26-7.63-29.28-14.19-42.53-23.31-48-33-88.7-73.94-125.39-118.94C869,495.47,854.22,473.9,844.32,449.3c-3.43-8.53-3.87-16.66.46-24.6,7.07-13,14.47-25.76,22-38.47,8-13.38,7.5-28.24-3.22-39.38q-31.39-32.64-63.91-64.17c-9.82-9.57-26-11.52-36.37-4.31-16.81,11.67-33.22,24-49.4,36.52-10.51,8.17-16.17,19.61-18.75,32.61-3.68,18.54-1.76,36.79,2.91,54.86,12,46.25,36,86.46,63.46,124.74C804.93,587.53,856.27,640.76,911.8,690c41.21,36.58,84.93,69.75,134.66,94.17C1074.18,797.82,1102.87,808.38,1145.35,809.59Z" transform="translate(-523.04 -105.06)"/></svg>