<?xml version="1.0" encoding="utf-8"?>
<!-- Generator: Adobe Illustrator 23.0.6, SVG Export Plug-In . SVG Version: 6.00 Build 0)  -->
<svg version="1.1" id="Calque_1" xmlns="http://www.w3.org/2000/svg" xmlns:xlink="http://www.w3.org/1999/xlink" x="0px" y="0px"
	 viewBox="0 0 955.8 955.8" style="enable-background:new 0 0 955.8 955.8;" xml:space="preserve">
<style type="text/css">
	.st0{fill:#333333;}
</style>
<title>microphone</title>
<path class="st0" d="M495.6,0c7.5,1.6,15.1,2.9,22.6,4.8C590.7,22.6,645,87.3,646.6,161.9c1.7,76,0.7,152.1,0.5,228.2
	c-0.1,27.6,0.9,55.5-2.8,82.7c-10.1,75.2-81.9,136.8-157.6,140.5c-99.6,4.8-165-70.9-176.4-134.1c-2.2-11.3-3.3-22.7-3.5-34.2
	c-0.3-91.9,0.3-183.8-0.3-275.7C306.1,80.5,376.8,13.6,445.8,2.6c4.2-0.7,8.4-1.7,12.6-2.6L495.6,0z"/>
<path class="st0" d="M442.7,817.8v-69.3c-15.9-3.3-31.8-5.9-47.2-10c-118.3-31.7-208.2-134-222.1-255.3
	c-4.1-36.2-2.9-73.1-2.8-109.7c0-19.6,16.5-33.3,35.7-32.5c17.8,0.7,31.8,15.8,32.1,34.5c0.5,31.3-1,62.8,1.9,94
	c9.2,99.3,84,183.1,181.6,206.1c121.4,28.6,247.1-42.6,282.7-161.4c6.6-22,8.7-45.6,10.4-68.7c1.7-23.5,0.2-47.2,0.5-70.8
	c0.2-18.1,14.5-33,31.9-33.8c18.6-0.8,35.3,11.9,35.6,30.5c0.9,51.1,3.6,102.3-9.7,152.7C743.5,637.5,640.5,729.5,525,745.5
	c-4.3,0.6-8.6,1.4-14.1,2.3v69.5c3.8,0.2,7.1,0.5,10.3,0.5c41.9,0,83.8-0.1,125.7,0.1c16.3,0,29.7,10.6,33.4,25.8
	c3.7,15.4-3.2,31.3-17.7,38.2c-5.3,2.4-11.1,3.7-17,3.7c-112.4,0.2-224.8,0.2-337.2,0.1c-20.9,0-36.5-15.3-36-34.5
	c0.4-18.9,15.9-33.3,36.3-33.3c41-0.1,82-0.1,122.9,0L442.7,817.8z"/>
</svg>
