<?xml version="1.0" encoding="utf-8"?>
<!-- Generator: Adobe Illustrator 23.0.6, SVG Export Plug-In . SVG Version: 6.00 Build 0)  -->
<svg version="1.1" id="Calque_1" xmlns="http://www.w3.org/2000/svg" xmlns:xlink="http://www.w3.org/1999/xlink" x="0px" y="0px"
	 viewBox="0 0 952.4 952.6" style="enable-background:new 0 0 952.4 952.6;" xml:space="preserve">
<style type="text/css">
	.st0{fill:#333333;}
</style>
<title>mute</title>
<path class="st0" d="M284.1,952.6c-12-4.1-16.4-13-16.1-25.1c0.2-8-0.1-16.1,0.1-24.1c0.4-16.5,7.5-23.6,24-23.7
	c44.9-0.1,89.8,0,134.6,0h11.4v-49.1c-50.3-7.2-96.1-25.9-136-56.2l51.4-51.7c20.8,13.5,43.6,23.7,67.6,30.1
	c105.1,28.2,220.9-31.5,258.7-133.3c9.9-26.4,15-54.4,14.9-82.5c-0.1-20.4-0.1-40.9,0-61.3c0.1-16.7,7.8-24.2,24.6-24.3
	c9-0.1,18-0.3,26.9,0.1c13,0.5,21.2,7.1,21.3,19.6c0.3,46.9,3.4,94-8.9,140.2c-15.3,57.1-44.8,105.5-88.5,145.2
	c-42.4,38.6-91.9,63.2-148.8,72.3c-2.7,0.4-5.4,1.2-8.6,1.9v48.9h10.4c44.3,0,88.5,0,132.8,0c20.2,0,26.8,6.6,26.9,26.5
	c0,7.1-0.2,14.2,0,21.3c0.3,12.1-4.1,21-16.1,25.1L284.1,952.6z"/>
<path class="st0" d="M262,584c14-13.8,28.2-27.5,41.7-41.8c2.2-2.3,2-7.5,2-11.4c0.1-117.6,0.3-235.2,0-352.8
	c-0.1-47.7,13.9-89.8,47.6-123.8C401.6,5.4,460.5-10.7,526,10c65.3,20.6,104.7,67,116.6,134.9c3.1,17.5,2.5,35.6,3.7,55
	c2.9-2.7,5.2-4.8,7.4-7.1c37.4-37.4,74.8-74.8,112.3-112.2c23.4-23.3,53.4-25.4,76.7-5.8c21.7,18.3,25.1,51.2,7.5,73.5
	c-2.9,3.6-6,7.1-9.3,10.4C622.7,376.9,404.5,595,186.4,813.2c-24.5,24.5-54.4,27.2-78,7.3c-22.1-18.7-26.1-52.3-7-74
	c17.3-19.7,36.6-37.8,55.1-56.4c13.7-13.9,27.4-27.7,41.4-41.3c3.5-3.4,4.7-6.3,2.8-11.2c-14.2-36.9-18.5-75.4-18-114.7
	c0.2-15.8-0.2-31.6,0.1-47.3c0.3-16.8,7.8-24.1,24.7-24.3c8.4-0.1,16.7-0.1,25.1,0c15.6,0.3,23.4,7.9,23.6,23.5
	c0.2,18.6-0.3,37.1,0.2,55.7c0.5,17.6,1.9,35.1,2.9,52.7L262,584z"/>
<path class="st0" d="M645.1,430.7c0,12.7,0,24.7,0,36.7c-0.1,31.2,0.5,62.5-0.6,93.7c-2.9,80.5-64.7,148.2-144.6,159.4
	c-43.6,6.1-87.3-4-117.8-26.8L645.1,430.7z"/>
</svg>
