<?xml version="1.0" encoding="utf-8"?>
<!-- Generator: Adobe Illustrator 23.0.6, SVG Export Plug-In . SVG Version: 6.00 Build 0)  -->
<svg version="1.1" id="Calque_1" xmlns="http://www.w3.org/2000/svg" xmlns:xlink="http://www.w3.org/1999/xlink" x="0px" y="0px"
	 viewBox="0 0 926.5 969" style="enable-background:new 0 0 926.5 969;" xml:space="preserve">
<style type="text/css">
	.st0{fill:#333333;}
</style>
<title>phone</title>
<path class="st0" d="M511.1,969c-8.5-1.5-17.2-2.6-25.6-4.5c-30.7-7-58.2-21.1-84.2-38.6c-40.3-27.3-75-60.8-107.3-97
	c-61.9-69.5-114-146-162.7-225.1C95.3,545.3,62.5,485,37,421c-14.8-37.1-26.9-75.1-32.5-114.9c-5.6-39.4-4.7-78.4,10.8-115.9
	c13.6-32.8,36.4-58.1,65.3-77.9c26.9-18.6,54.5-36.1,82-53.9c10.4-6.8,21.8-3.8,28.9,7.1c35.2,54.2,70.3,108.3,105.4,162.5
	c15.7,24.3,31.5,48.5,47.2,72.8c8.3,12.8,6,23.6-6.8,31.9c-21.9,14.2-43.8,28.5-65.8,42.5c-6,3.8-8.9,8.9-9.9,15.5
	c-2.3,15,0.8,29.5,4.8,43.8c10.6,38,28.5,72.7,49.4,105.9c22.2,35.4,47.7,68.1,79.3,95.7c10.4,9.1,21.5,17.3,34.4,22.7
	c9.5,4,18.2,3.9,27.4-2.3c20.9-14.3,42.4-27.6,63.7-41.3c12.2-7.8,22.9-5.6,30.8,6.5c51.2,78,102.3,156.1,153.5,234.2
	c8.2,12.5,5.9,23.4-6.8,31.5c-29.6,18.9-59.1,38.1-89.1,56.5c-21.9,13.4-45.8,22.1-71.7,24.2c-0.8,0.1-1.6,0.4-2.3,0.7L511.1,969z"
	/>
<path class="st0" d="M926.5,473.6c-0.6,7.5-0.9,15-1.9,22.5c-2.5,19.4-4.8,38.8-8.3,58c-3.9,21.8-24.8,35.3-46.4,30.9
	c-21.1-4.3-34.4-25-30-47.1c6.3-30.5,8.9-61.6,7.7-92.6c-3.1-79.5-28-151.5-75.1-215.4c-57.2-77.7-133.3-127.4-227.3-149.3
	c-10.6-2.5-20.5-5.7-27.9-14.3c-10.6-12.6-12.3-30.4-4.2-44.7c8.2-14.3,24.6-22.1,40.7-18.8c78.2,16.1,147.9,49.9,208.4,102
	c78.7,67.8,129.6,152.7,152.8,254c6,26.3,9.6,53.1,10.6,80c0.1,2.4,0.5,4.9,0.8,7.3L926.5,473.6z"/>
<path class="st0" d="M727.9,459.8c-2.2,17.4-3.8,34.9-6.7,52.2c-3.8,22.8-24.3,36.8-46.1,32.5c-21.5-4.3-34.7-24.8-30.4-47.3
	c9.5-49.9,1.3-96.5-26.1-139.3c-27.7-43.2-66.8-70.8-116.9-82.5c-17.2-4-29.3-13-33.6-30.6c-6.5-26.6,17.7-52.6,44.5-46.8
	c90.7,19.7,154.6,72.8,192.5,157.1c14.8,33.1,21.5,68.1,21.4,104.5L727.9,459.8z"/>
</svg>
