<svg id="Calque_1" data-name="Calque 1" xmlns="http://www.w3.org/2000/svg" viewBox="0 0 893.43 892.71"><defs><style>.cls-1{fill:#db0000;}</style></defs><title>ringout</title><path class="cls-1" d="M963.48,97.21c246.84.26,446.26,200.23,445.82,447.07-.44,246.43-201.38,446.5-447.57,445.64-247-.86-446.39-200.91-445.85-447.27S716.61,97,963.48,97.21Zm2.67,394.26c14,.77,31.29,1.39,48.5,2.72,40,3.1,79.09,10.13,115.69,27.9,10.89,5.29,13,10.81,8.74,22.61-9.42,26.33-17.66,53.17-24.6,80.25-6.88,26.84.09,36.22,27.82,40.94q75.75,12.92,151.62,25.19c16.14,2.64,28.71-5,30.89-20.91,4.39-32,8.46-64.14,10.44-96.36,3.5-57.12-23.15-94.66-76-116.79-87.23-36.55-178.22-56.82-272.11-58.2-57.87-.86-116.34,5.84-173.72,14.55a539,539,0,0,0-165.69,53.32c-38.18,19.6-56.62,51.23-56.73,92.68-.08,31.15,3.38,62.38,6.42,93.46,3.56,36.26,18,45.68,48.7,35.41,2.51-.84,5.36-.58,8-1,45.23-7.48,90.53-14.58,135.64-22.69,20.5-3.69,27.69-15,22.64-34.82-6.38-25-13.21-50-21.37-74.53-9.24-27.76-10-27.52,17.57-39.19,2-.84,4.07-1.44,6.09-2.21C862.53,495.62,912.64,493.2,966.15,491.47Z" transform="translate(-515.87 -97.21)"/></svg>