<?xml version="1.0" encoding="utf-8"?>
<!-- Generator: Adobe Illustrator 23.0.6, SVG Export Plug-In . SVG Version: 6.00 Build 0)  -->
<svg version="1.1" id="Calque_1" xmlns="http://www.w3.org/2000/svg" xmlns:xlink="http://www.w3.org/1999/xlink" x="0px" y="0px"
	 viewBox="0 0 1920 1080" style="enable-background:new 0 0 1920 1080;" xml:space="preserve">
<style type="text/css">
	.st0{fill:#333333;}
</style>
<g>
	<path class="st0" d="M1369.8,540c0.1,227.2-182.7,410.1-410.1,410.2c-227.4,0-410.1-182.7-410.1-410c0-227.4,182.6-410.2,410-410.2
		C1187,130,1369.7,312.6,1369.8,540z M891.3,608.5c0,3.3,0,5.7,0,8.2c0,42.6-0.1,85.1,0,127.7c0.1,20.1,15.1,34.9,35.2,35
		c21.2,0.1,42.4-0.8,63.5,0.2c20.7,1,38.8-15.4,38.3-38.6c-0.8-41.5-0.2-83.1-0.2-124.6c0-2.4,0-4.9,0-7.9c2.9,0,5.1,0,7.3,0
		c42.4,0,84.7,0,127.1,0c21.8,0,36.4-14.5,36.4-36.3c0.1-20.6,0-41.1,0-61.7c0-25.1-13.8-38.9-38.9-38.9c-41.5,0-83.1,0-124.6,0
		c-2.4,0-4.8,0-7.4,0c0-3.5,0-6,0-8.5c0-41.9,0-83.9,0-125.8c0-21.8-14.6-36.4-36.3-36.5c-21-0.1-41.9,0-62.9,0
		c-23.5,0-37.7,14.2-37.7,37.5c0,41.9,0,83.9,0,125.8c0,2.4,0,4.8,0,7.5c-2.6,0-4.3,0-5.9,0c-43,0-86-0.1-128.9,0
		c-21.5,0.1-35.9,14.7-36,36.1c0,21.4,0,42.8,0,64.2c0,22.2,14.4,36.5,36.7,36.5c35.7,0,71.4,0,107.1,0
		C873,608.5,881.7,608.5,891.3,608.5z"/>
</g>
</svg>
