<svg id="Calque_1" data-name="Calque 1" xmlns="http://www.w3.org/2000/svg" viewBox="0 0 1598.21 380.58"><defs><style>.cls-1{font-size:256px;font-family:Hack-Regular, Hack;letter-spacing:-0.02em;}.cls-1,.cls-3{fill:#333;}.cls-2{letter-spacing:-0.08em;}.cls-4{fill:#2a72ff;}</style></defs><title>typehat_logo</title><text class="cls-1" transform="translate(294.95 271.68)">TypeH<tspan class="cls-2" x="738.63" y="0">at_</tspan></text><path class="cls-3" d="M499.8,487v51.66a9.12,9.12,0,0,1-4.79,8L246.84,680.63a9.12,9.12,0,0,1-13.45-8V630.53a9.1,9.1,0,0,1,5-8.12L447.62,515.9m0,0L238.35,408.36a9.12,9.12,0,0,1-5-8.11V358.5a9.12,9.12,0,0,1,13.45-8L499.8,487" transform="translate(-233.39 -349.37)"/><path class="cls-4" d="M499.8,533.37v53.29a6.4,6.4,0,0,1-3.36,5.63L242.83,729.17a6.4,6.4,0,0,1-9.44-5.63v-48.3a6.4,6.4,0,0,1,3.5-5.7L447.62,562.27m0,0L236.87,454a6.42,6.42,0,0,1-3.48-5.69v-48a6.4,6.4,0,0,1,9.44-5.63l257,138.69" transform="translate(-233.39 -349.37)"/></svg>